<svg width="380" height="112" viewBox="0 0 380 112" fill="none" xmlns="http://www.w3.org/2000/svg">
<path d="M73.68 67.04C67.58 71.35 62.19 75.37 54.28 75.37C39.29 75.37 39.55 59.05 51.8 39.18C64.04 19.31 78.24 9.99 85.15 9.99C92.06 9.99 84.6 22.11 72.8 30.09C72.8 30.09 75.83 40.06 83.02 35.98C98.28 27.21 105.12 0 87.82 0C72.46 0 62.68 4.46 47.92 18.51L0 69.61L27.77 50.79H27.78C18.73 74.61 31.88 89.57 48.6 89.57C50.1 89.57 51.61 89.44 53.1 89.21L41.27 111.37C41.27 111.37 90.16 62.31 96.91 55.68C96.91 55.68 100.13 46.37 101.99 43.06L73.67 67.03L73.68 67.04Z" fill="#D9D9D9"/>
<path d="M350.68 45.75C349.58 40.54 343.76 35.87 338.74 35.87C333.35 35.87 327.6 37.44 320.62 42.78C318.1 44.7 314.13 48.26 309.74 52.02C301.03 59.09 290.88 66.91 289.04 68.36C286.99 70.1 285.03 71.84 284.37 71.13C283.63 70.5 285.85 66.15 287.07 64.01C290.6 57.61 291.91 55.23 293.96 51.52C300.18 40.05 295.1 36.57 288.8 36.57C284.86 36.57 280.29 35.67 261.03 52.5C261.06 52.44 261.08 52.4 261.11 52.35C261.16 52.28 261.3 52.04 261.6 51.52C268.15 40.52 262.83 36.57 256.44 36.57C253.1 36.57 246.48 36.45 234.6 46.77L234.72 46.45L237.44 39.94L250.58 13.92L233.88 30.81C233.88 30.81 206.37 56.41 204.07 58.29C196.89 65.47 183.9 77.43 167.13 79.01C159.53 79.72 156.39 74.49 157.9 67.39C159.14 68.54 160.65 69.52 162.6 70.05C170.32 72.45 179.1 68.28 186.73 58.78C197.84 44.87 189.21 36.21 179.21 33.67L194.65 13.92L156.61 42.81C145.99 51.33 129.04 64.23 126.49 66.33C124.28 68.28 117.95 72.12 117.25 71.32C116.54 70.61 122.13 64.3 124.71 60.8C129.54 54.24 129.28 54.18 131.5 49.92C137.44 38.56 128.38 42.35 121.35 38.83C118.77 37.54 120.15 35.01 120.82 34.84C127.83 33.98 128.98 25.52 124.28 22.5C119.93 19.66 112.21 18.42 107.07 24.81C100.59 32.97 107.42 40.96 112.3 43.26C115.63 44.83 119.84 44.95 115.32 52.49C110.97 59.76 104.37 65.28 100.74 71.93C95.7699 81.16 97.6799 84.79 103.33 86.3C105.63 86.91 114.34 85.84 122.15 80.16C125.96 77.39 134.1 71.1 143.42 63.56C140.95 74.06 140.22 86.56 158.94 89.38C161.09 89.71 168.86 89.16 172.15 88.43L153.13 111.37L196.43 76.21C200.43 72.72 204.73 68.84 208.84 65.07L195.49 89.08H209.78C220.43 70.1 240.95 50.33 245.7 50.33C248.49 50.33 247.43 53.73 244.07 59.82C241.32 64.86 233.97 76.03 230.14 83.01C228.81 85.43 231.39 89.08 234.16 89.08H240.95C240.95 89.08 241.69 87.74 242.84 85.68C253.98 67.81 273.56 50.33 277.98 50.33C280.77 50.33 279.78 53.81 276.34 59.9C272.66 66.54 270.2 71.13 266.84 77.06C262.17 85.29 264.63 89.08 270.04 89.08C273.39 89.08 277.98 87.19 285.03 80.7C287.71 78.27 293.96 72.55 300.6 66.46C292.74 81.59 301.78 87.63 310.7 89.08L292.02 111.37L328.14 83.9C326.91 89.13 329.49 91.57 333.95 91.57C337.67 91.57 342.55 89.44 350.18 82.16C345.57 82.96 345.21 76.31 352.4 63.45C356.21 56.26 363.04 46.18 363.04 46.18L379.32 24.17L350.68 45.75ZM161.8 58.16C167.57 48.49 175.91 40.78 180.52 40.78C185.13 40.78 180.25 51.16 174.58 55.95C170.41 59.41 165.44 62.78 161.09 59.41C161.36 58.96 161.62 58.61 161.8 58.16ZM335 63.9C325.99 73.89 324.41 74.93 320.1 76.55C315.21 78.39 311.06 71.54 316.73 61.95C322.5 52.37 335.92 43.15 340.05 46.36C343.62 49.14 342.49 55.6 335 63.9Z" fill="#D9D9D9"/>
</svg>
